PathFileType	4	(X/Y/Z)	C:/Users/opensim2020/Desktop/walking_exp_matlab/subject03_walking09_straight_02.trc	
DataRate	CameraRate	NumFrames	NumMarkers	Units	OrigDataRate	OrigDataStartFrame	OrigNumFrames	
100.00	100.00	8	47	mm	100.00	2154	364	
Frame#	Time	LFHD			RFHD			LBHD			RBHD			C7			T10			CLAV			STRN			RBAK			LSHO			LUPA			LELB			LFRM			LWRA			LWRB			LFIN			RSHO			RUPA			RELB			RFRM			RWRA			RWRB			RFIN			LASI			RASI			LPSI			RPSI			LTHI			LKNE			LTIB			LANK			LHEE			LTOE			RTHI			RKNE			RTIB			RANK			RHEE			RTOE			*39			*40			*41			*42			*43			*44			*45			*46			
		X1	Y1	Z1	X2	Y2	Z2	X3	Y3	Z3	X4	Y4	Z4	X5	Y5	Z5	X6	Y6	Z6	X7	Y7	Z7	X8	Y8	Z8	X9	Y9	Z9	X10	Y10	Z10	X11	Y11	Z11	X12	Y12	Z12	X13	Y13	Z13	X14	Y14	Z14	X15	Y15	Z15	X16	Y16	Z16	X17	Y17	Z17	X18	Y18	Z18	X19	Y19	Z19	X20	Y20	Z20	X21	Y21	Z21	X22	Y22	Z22	X23	Y23	Z23	X24	Y24	Z24	X25	Y25	Z25	X26	Y26	Z26	X27	Y27	Z27	X28	Y28	Z28	X29	Y29	Z29	X30	Y30	Z30	X31	Y31	Z31	X32	Y32	Z32	X33	Y33	Z33	X34	Y34	Z34	X35	Y35	Z35	X36	Y36	Z36	X37	Y37	Z37	X38	Y38	Z38	X39	Y39	Z39	X40	Y40	Z40	X41	Y41	Z41	X42	Y42	Z42	X43	Y43	Z43	X44	Y44	Z44	X45	Y45	Z45	X46	Y46	Z46	X47	Y47	Z47	

319	3.180	1503.47656	-827.73499	1597.64478	1372.27258	-803.40643	1599.57092	1524.96582	-695.93689	1576.18018	1395.60205	-676.00177	1576.44873	1461.98804	-637.57617	1406.98682	1455.88098	-602.47284	1091.38232	1463.65527	-757.05865	1327.95251	1464.58398	-800.65112	1163.39941	1358.06238	-585.79950	1232.51929	1619.40906	-703.62317	1360.87341	1680.83228	-670.94153	1161.25610	1688.51941	-664.43604	1037.32703	1685.44446	-682.89642	908.30872	1652.10034	-699.26038	791.71649	1699.27393	-669.75006	795.04205	1686.73572	-681.21143	711.66449	1303.52393	-719.94946	1353.65881	1230.65796	-755.81677	1134.57935	1221.68665	-794.24347	1028.27515	1229.10413	-844.10327	901.15070	1274.62573	-893.00916	819.18774	1227.94104	-870.30164	803.92908	1244.54932	-909.76971	743.50067	1567.67554	-772.18018	928.17725	1330.35559	-760.40576	923.84631	1528.31873	-607.36566	950.50665	1377.85840	-602.72076	960.60107	1618.87549	-776.96930	632.57196	1575.14355	-833.79932	465.78317	1583.06641	-839.92419	275.81830	1556.36780	-891.36694	70.73480	1518.24329	-859.82922	29.29150	1525.32727	-1043.67078	54.54894	1295.79810	-655.10846	637.27100	1330.63611	-627.61652	459.22278	1327.95581	-524.84631	294.49734	1374.51843	-425.06613	101.29670	1423.79041	-373.26224	80.66577	1389.68250	-553.35876	36.78010	1465.71277	-749.75958	1673.07910																					 
320	3.190	1503.95569	-836.46753	1598.29089	1372.91516	-811.36041	1600.05872	1526.26611	-704.85236	1576.74231	1397.10815	-684.08771	1576.88818	1463.78943	-646.40936	1407.20459	1457.19910	-611.98218	1091.25854	1464.77246	-765.60492	1328.46326	1465.43237	-809.63928	1163.91797	1360.30896	-593.95636	1232.42932	1620.84851	-713.13171	1361.00903	1682.09717	-680.47998	1161.24841	1689.71338	-673.55530	1037.25903	1686.28491	-691.59857	908.07098	1652.88171	-707.39941	791.54633	1700.01172	-677.91046	794.89911	1687.28870	-688.73016	711.54559	1304.61523	-728.04840	1353.67017	1231.97961	-762.80566	1134.39307	1222.89343	-800.80084	1027.79651	1230.58545	-850.36615	900.53558	1276.19800	-898.56335	818.30768	1229.52844	-876.05908	803.15503	1246.24658	-915.21741	742.55365	1568.52368	-782.17523	928.83087	1331.34265	-769.21716	923.50800	1530.14771	-616.97595	951.72351	1379.39172	-611.97186	960.70056	1618.93604	-785.84869	633.86584	1575.66040	-839.56525	466.01233	1584.53503	-846.12622	276.36060	1557.40088	-895.48511	70.74963	1519.56567	-860.65326	31.83823	1523.45251	-1046.70996	49.41913	1296.76343	-662.98187	637.27472	1331.19495	-635.11157	459.29193	1328.31287	-529.76447	295.98416	1374.39185	-426.97900	104.23897	1423.86035	-374.72498	84.75271	1389.59888	-553.71808	36.75553	1466.92297	-758.01813	1672.68555																					 
321	3.200	1504.45520	-845.19867	1598.97913	1373.62976	-819.42603	1600.57373	1527.59045	-713.74866	1577.39783	1398.64246	-692.25897	1577.38782	1465.50037	-655.30481	1407.72412	1458.55371	-621.07629	1091.76660	1465.90796	-774.35754	1328.97339	1466.30444	-818.67896	1164.64819	1362.49890	-602.21606	1232.67358	1622.29065	-722.61688	1361.41736	1683.43030	-690.15833	1161.55249	1690.88757	-683.31519	1037.45105	1687.23035	-700.61267	908.16443	1654.07068	-716.07190	792.02332	1700.98511	-686.30005	795.07373	1687.94836	-696.59729	711.69714	1305.85864	-735.98151	1354.05981	1233.36719	-769.91089	1134.47815	1224.22375	-807.35559	1027.58740	1231.98669	-856.31317	900.01990	1277.42432	-904.45642	817.78339	1230.97375	-881.49561	802.53894	1247.77759	-920.43066	741.80029	1569.38574	-792.17621	929.89044	1332.37378	-778.18048	923.35583	1531.38135	-627.10309	952.55865	1380.73279	-621.45734	960.93463	1618.78528	-794.39032	634.99152	1576.30774	-845.94025	466.17642	1585.64014	-852.08588	276.44516	1557.72925	-898.56580	70.20678	1520.37305	-862.85980	32.15686	1522.47632	-1049.06189	44.45304	1297.80579	-671.29163	637.42004	1331.63367	-643.00739	459.43060	1328.61633	-534.98328	297.75806	1374.37537	-429.06403	107.69009	1423.95532	-376.64230	89.09848	1389.52332	-554.09955	36.69223	1467.33484	-766.36420	1674.23218																					 
322	3.210	1505.02539	-853.92792	1599.75232	1374.38147	-827.26746	1601.15710	1528.90796	-722.60797	1578.02539	1400.08923	-700.35144	1577.89038	1467.00000	-664.30676	1408.35474	1459.93469	-630.15417	1092.37183	1467.04370	-783.41327	1329.66504	1467.35669	-827.88281	1165.46277	1364.58191	-610.73633	1232.87708	1623.72070	-732.10431	1362.05066	1684.81543	-700.09869	1162.12439	1692.07642	-693.34406	1037.93188	1688.24158	-709.97119	908.56842	1655.06409	-724.91589	792.50763	1702.00916	-695.14441	795.52625	1688.74280	-704.88824	712.15155	1307.14417	-744.00928	1354.57520	1234.79993	-777.00958	1134.76355	1225.63647	-813.92255	1027.63037	1233.35913	-862.13208	899.80524	1278.65381	-910.36151	817.30920	1232.33325	-886.73132	802.11981	1249.13855	-925.36584	741.16528	1570.34363	-802.24359	931.27161	1333.53577	-787.59937	923.60010	1532.65820	-636.69769	953.92041	1382.00916	-630.83441	961.27051	1618.77246	-802.45300	635.87689	1576.95215	-852.67584	466.48123	1586.56628	-857.34528	276.22916	1557.53210	-901.05182	69.59480	1520.83960	-863.63666	33.11373	1522.52283	-1051.82544	42.05068	1298.77283	-679.90729	637.54810	1331.95288	-651.37378	459.61789	1328.84045	-540.40076	299.57498	1374.19653	-431.53949	111.23528	1424.08167	-378.94150	93.94690	1389.42468	-554.58850	36.67932	1468.32397	-774.86920	1674.88794																					 
323	3.220	1505.53296	-862.65332	1600.68640	1375.35559	-834.66010	1601.62146	1530.24353	-731.47321	1578.66736	1401.48425	-708.44318	1578.37476	1468.65332	-672.99780	1409.15344	1461.58374	-638.90607	1093.30298	1468.25281	-792.19104	1330.45276	1468.30774	-836.89270	1166.37659	1366.74536	-619.06409	1233.55823	1625.10474	-741.69220	1362.86438	1686.14429	-710.17584	1162.90100	1693.28833	-703.42993	1038.67712	1689.37439	-719.58368	909.26880	1654.26782	-731.97693	791.70789	1703.06238	-704.45734	796.18420	1689.73010	-713.53912	712.76715	1308.45581	-752.12878	1355.42029	1236.30945	-784.20435	1135.39783	1227.14587	-820.45483	1027.95508	1234.65295	-867.79419	899.81207	1279.71851	-915.88733	817.44489	1233.47815	-891.88428	801.99927	1250.33447	-930.04071	740.69910	1571.38232	-812.23767	932.85181	1334.74072	-796.95306	923.84113	1533.90454	-646.43542	955.36230	1383.23645	-640.34967	961.66644	1619.42065	-810.24536	637.18701	1577.67676	-859.36072	466.89874	1587.21582	-862.10626	276.35950	1556.23145	-902.33270	69.45526	1520.91113	-864.46210	33.78275	1523.21497	-1054.09351	41.02509	1299.86279	-688.89020	637.74597	1332.20422	-660.38165	459.83063	1328.94666	-546.46179	301.65662	1373.99768	-434.39453	115.16654	1424.04382	-381.63904	99.23941	1389.36169	-555.12524	36.69154																								 
324	3.230	1506.10498	-871.35400	1601.86621	1376.06189	-842.61566	1602.69519	1531.54614	-740.34137	1579.56567	1402.92249	-716.67023	1579.17529	1470.59766	-681.30072	1410.06970	1462.87988	-648.44110	1093.68054	1469.46179	-801.00824	1331.51050	1469.31506	-846.04260	1167.57837	1368.66650	-627.55963	1234.24170	1626.34753	-751.36310	1363.82312	1687.50879	-720.34888	1163.83215	1694.54895	-713.64923	1039.61670	1690.57202	-729.43042	910.15771	1658.15759	-743.89905	794.71283	1704.41821	-714.06439	797.08734	1690.79858	-722.62225	713.61194	1309.84106	-760.38397	1356.41345	1237.82654	-791.37927	1136.10901	1228.68848	-826.92078	1028.49915	1235.82776	-873.16663	899.85669	1280.88916	-920.42047	816.63184	1234.65198	-896.75018	802.03479	1251.34314	-934.48090	740.38080	1572.56201	-821.99774	934.49701	1336.05676	-806.39630	924.34595	1535.22314	-656.02875	957.02783	1384.49219	-649.84302	962.18719	1620.75684	-817.87268	638.90662	1578.45203	-866.04346	467.91705	1587.99756	-866.16406	276.92252	1556.07532	-902.63416	69.81107	1521.04248	-864.64648	33.95978	1522.30945	-1054.97571	40.13200	1300.80835	-698.30286	637.96381	1332.32556	-670.07709	460.09219	1328.83240	-553.21478	303.80402	1373.59131	-437.65134	119.63486	1423.94446	-384.88571	105.04233	1389.31812	-555.74268	36.78301	1470.30811	-790.79407	1676.81018																					 
325	3.240	1506.76636	-880.41821	1603.38306	1376.81042	-850.74811	1603.89429	1532.67102	-749.32062	1580.75867	1404.45325	-724.76471	1580.32629	1472.33606	-690.01495	1411.13110	1464.49768	-657.27484	1094.99304	1470.55505	-809.73651	1332.78101	1470.11975	-854.91876	1168.91003	1370.56409	-635.90289	1235.30225	1627.75745	-760.71332	1365.09802	1688.94739	-730.66107	1164.99304	1695.87097	-724.10168	1040.79260	1691.84509	-739.63184	911.27753	1656.62427	-750.83429	793.56714	1705.89478	-724.10974	798.24347	1692.05566	-732.45624	714.87952	1311.20813	-768.16095	1357.69592	1239.38770	-798.50183	1137.13989	1230.25818	-833.37280	1029.22827	1237.05200	-878.80048	900.33014	1281.69202	-925.59406	816.74207	1235.55322	-901.56580	802.25317	1252.13611	-938.76501	740.23187	1573.91968	-831.51123	936.31500	1337.44849	-815.77203	925.04645	1536.44421	-665.49359	958.87640	1385.69641	-659.26685	962.93823	1622.82605	-826.53235	641.50800	1579.18835	-872.52869	469.25424	1588.71106	-869.91095	277.77814	1556.05835	-902.60992	69.98748	1521.19299	-864.53326	33.87457	1521.66528	-1055.18848	39.65354	1301.72363	-708.10370	638.28546	1332.39746	-680.79932	460.23254	1328.77576	-560.77289	306.07141	1373.30249	-441.97559	124.23520	1423.79333	-388.70328	111.39471	1389.27124	-556.43793	36.88396	1471.24109	-799.81342	1677.77087																					 
326	3.250	1507.31934	-889.04724	1604.76282	1377.51941	-858.65308	1605.14417	1533.98999	-758.01263	1582.14758	1405.65051	-733.01398	1581.54565	1474.01831	-698.40906	1412.36255	1465.50024	-666.71075	1095.91321	1471.61084	-818.33417	1334.24744	1471.04700	-863.84027	1170.46851	1372.19910	-644.28833	1236.45300	1628.93652	-770.26923	1366.44971	1690.38208	-741.09668	1166.35193	1697.23462	-734.76996	1042.11414	1693.20056	-750.11719	912.62592	1657.93848	-760.84076	794.80475	1707.48438	-734.57251	799.58789	1693.49744	-742.44403	716.10822	1312.44556	-776.20752	1359.08008	1240.84521	-805.44659	1138.37061	1231.72559	-839.74243	1030.21875	1238.16028	-884.20667	900.88269	1282.36060	-930.27814	816.78955	1236.27356	-905.96753	802.66882	1252.74780	-942.75421	740.22296	1575.33069	-840.89142	938.34583	1338.89490	-825.07837	926.03015	1537.60864	-675.02930	960.85461	1386.92444	-669.06995	963.71930	1624.67749	-834.45087	643.50818	1580.27063	-878.67242	470.67282	1589.55469	-873.06189	278.44092	1556.26074	-902.43616	70.15022	1521.43445	-864.54968	33.80289	1521.80066	-1055.34180	39.35533	1302.47986	-718.44031	638.67590	1332.15662	-692.22717	460.48508	1329.03870	-568.64032	308.61255	1372.94714	-446.72949	129.13123	1423.89209	-393.40823	118.35184	1389.23853	-557.28186	37.11315	1472.12341	-808.06433	1679.12341																					 
